<svg width="64" height="64" viewBox="0 0 64 64" fill="none" xmlns="http://www.w3.org/2000/svg">
  <rect width="64" height="64" rx="16" fill="url(#g)"/>
  <path d="M22 18c-1.5 0-2.7 1.1-2.9 2.6-.9 6.5 1.9 13.2 6.6 17.9 4.7 4.7 11.4 7.5 17.9 6.6 1.5-.2 2.6-1.4 2.6-2.9v-4.3c0-1.3-.9-2.5-2.2-2.8l-4.6-1.1c-1.1-.3-2.3.1-3 1l-1.3 1.6c-2.9-1.5-5.3-3.9-6.8-6.8l1.6-1.3c.9-.7 1.3-1.9 1-3l-1.1-4.6c-.3-1.3-1.5-2.2-2.8-2.2H22z" fill="white"/>
  <circle cx="44" cy="20" r="6" fill="#fbbf24"/>
  <path d="M44 16.5l1 2 2.2.3-1.6 1.5.4 2.2-2-1-2 1 .4-2.2-1.6-1.5 2.2-.3z" fill="white"/>
  <defs>
    <linearGradient id="g" x1="0" y1="0" x2="64" y2="64" gradientUnits="userSpaceOnUse">
      <stop stop-color="#0ea5e9"/>
      <stop offset="1" stop-color="#0369a1"/>
    </linearGradient>
  </defs>
</svg>
